# xmcd
#
# Track frame offsets: 
#        150
#        14186
#        32043
#        47726
#        62361
#        76283
#        88623
#        103242
#        113427
#        130546
#        144686
#        160231
#        172949
#        188936
#        215268
#        229687
#        239988
#        255337
#        312623
#
# Disc length: 4191 seconds
#
# Revision: 0
# Processed by: cddbd v1.4PL0 Copyright (c) Steve Scherf et al.
# Submitted via: ExactAudioCopy v0.95a3
#
DISCID=03105d13
DTITLE=Alex Harvey - Teenage A Go Go
DYEAR=2003
DGENRE=
TTITLE0=Marie Bailey
TTITLE1=The Ballad Of JFK
TTITLE2=Blind Man
TTITLE3=Told You Twice Already
TTITLE4=Going Down To Birmingham
TTITLE5=Jailhouse Rock
TTITLE6=Please Be Reasonable
TTITLE7=The Wicked Messenger
TTITLE8=Big Louis
TTITLE9=Running Around
TTITLE10=Electric Blues#2
TTITLE11=Dance Of The Green Scarab
TTITLE12=Blakes Hymn/Jerusalem
TTITLE13=Man A Space Hymn
TTITLE14=Take Me Love Me
TTITLE15=Swampsnake
TTITLE16=Electric Blues#1
TTITLE17=Grandfathers Clock Medley
TTITLE18=I'm Going To Stand By You
EXTD=
EXTT0=
EXTT1=
EXTT2=
EXTT3=
EXTT4=
EXTT5=
EXTT6=
EXTT7=
EXTT8=
EXTT9=
EXTT10=
EXTT11=
EXTT12=
EXTT13=
EXTT14=
EXTT15=
EXTT16=
EXTT17=
EXTT18=
PLAYORDER=
